<svg height="64" width="64" xmlns="http://www.w3.org/2000/svg"><circle cx="32" cy="32" fill="red" r="32"/><path d="M49.529 33.855L35.259 15.71c-1.793-2.28-4.726-2.28-6.519 0L14.471 33.855C12.679 36.135 13.439 38 16.161 38H24v12a4 4 0 004 4h8a4 4 0 004-4V38h7.839c2.722 0 3.482-1.865 1.69-4.145z" fill="red" opacity=".2"/><path d="M40 48a4 4 0 01-4 4h-8a4 4 0 01-4-4V24a4 4 0 014-4h8a4 4 0 014 4v24z" fill="#FFF"/><path d="M16.161 36c-2.722 0-3.483-1.865-1.69-4.145l14.27-18.145c1.793-2.28 4.726-2.28 6.519 0l14.269 18.146c1.793 2.28 1.032 4.145-1.69 4.145H16.161z" fill="#FFF"/></svg>